# Blender 3.6.0
# www.blender.org
mtllib torch_mesh.mtl
o Cylinder
v 0.000000 -1.000000 -1.000000
v 0.000000 1.000000 -1.000000
v 0.866025 -1.000000 -0.500000
v 0.866025 1.000000 -0.500000
v 0.866025 -1.000000 0.500000
v 0.866025 1.000000 0.500000
v 0.000000 -1.000000 1.000000
v 0.000000 1.000000 1.000000
v -0.866025 -1.000000 0.500000
v -0.866025 1.000000 0.500000
v -0.866025 -1.000000 -0.500000
v -0.866025 1.000000 -0.500000
v 0.000000 0.566895 -0.542365
v 0.000000 -0.566895 -0.542365
v 0.469702 -0.566895 -0.271183
v 0.469702 0.566895 -0.271183
v 0.469702 -0.566895 0.271183
v 0.469702 0.566895 0.271183
v 0.000000 -0.566895 0.542365
v 0.000000 0.566895 0.542365
v -0.469702 -0.566895 0.271183
v -0.469702 0.566895 0.271183
v -0.469702 -0.566895 -0.271183
v -0.469702 0.566895 -0.271183
v 0.675469 1.421335 -0.389982
v 0.000000 1.421335 -0.779964
v 0.675469 1.421335 0.389982
v 0.000000 1.421335 0.779964
v -0.675469 1.421335 0.389982
v -0.675469 1.421335 -0.389982
v 0.866025 1.421335 -0.500000
v 0.000000 1.421335 -1.000000
v 0.866025 1.421335 0.500000
v 0.000000 1.421335 1.000000
v -0.866025 1.421335 0.500000
v -0.866025 1.421335 -0.500000
v 0.492201 1.152127 -0.284172
v 0.000000 1.152127 -0.568344
v 0.492201 1.152127 0.284172
v 0.000000 1.152127 0.568344
v -0.492201 1.152127 0.284172
v -0.492201 1.152127 -0.284172
v 0.512516 1.415769 -0.558093
v 0.227064 1.415769 -0.722898
v 0.512516 1.415769 0.558093
v 0.227064 1.415769 0.722898
v -0.739580 1.415769 0.164806
v -0.739580 1.415769 -0.164806
v 0.544215 1.415769 -0.611768
v 0.257699 1.415769 -0.777188
v 0.544215 1.415769 0.611768
v 0.257699 1.415769 0.777187
v -0.801914 1.415769 0.165420
v -0.801914 1.415769 -0.165420
v 0.727037 1.786022 -0.777941
v 0.362697 1.786022 -0.988293
v 0.362696 1.786022 0.988293
v 0.727038 1.786022 0.777942
v -0.984737 1.786022 -0.210352
v -0.984737 1.786022 0.210352
v 0.686729 1.786022 -0.709686
v 0.323740 1.786022 -0.919257
v 0.323740 1.786022 0.919257
v 0.686729 1.786022 0.709686
v -0.905472 1.786022 -0.209571
v -0.905472 1.786022 0.209571
vn -0.3689 0.6751 -0.6389
vn 0.3689 0.6751 0.6389
vn -0.3689 0.6751 0.6389
vn -0.7377 0.6751 -0.0000
vn 1.0000 -0.0000 -0.0000
vn 0.3689 0.6751 -0.6389
vn -0.0000 -1.0000 -0.0000
vn 0.7377 0.6751 -0.0000
vn -0.7377 -0.6751 -0.0000
vn -0.3689 -0.6751 0.6389
vn 0.3689 -0.6751 0.6389
vn 0.7377 -0.6751 -0.0000
vn 0.3689 -0.6751 -0.6389
vn -0.5000 -0.0000 -0.8660
vn -1.0000 -0.0000 -0.0000
vn -0.5000 -0.0000 0.8660
vn 0.5000 -0.0000 0.8660
vn 0.5000 -0.0000 -0.8660
vn -0.3689 -0.6751 -0.6389
vn -0.4133 0.5627 0.7159
vn -0.0000 1.0000 -0.0000
vn 0.4133 0.5627 0.7159
vn 0.4133 0.5627 -0.7159
vn -0.8266 0.5627 -0.0000
vn 0.8266 0.5627 -0.0000
vn -0.4133 0.5627 -0.7159
vn 0.9126 0.4089 -0.0000
vn -0.8966 -0.4427 -0.0000
vn -0.8704 -0.0332 0.4912
vn -0.8704 -0.0332 -0.4912
vn -0.4307 0.5080 0.7459
vn 0.0098 -0.1157 0.9932
vn 0.4220 -0.5364 -0.7309
vn 0.8448 -0.1932 0.4989
vn -0.4307 0.5080 -0.7459
vn 0.0098 -0.1157 -0.9932
vn 0.4220 -0.5364 0.7309
vn 0.8448 -0.1932 -0.4989
vt 0.166667 0.500000
vt 0.166667 0.608276
vt -0.000000 0.608276
vt -0.000000 0.500000
vt 0.666667 0.500000
vt 0.666667 0.608276
vt 0.500000 0.608276
vt 0.500000 0.500000
vt 0.333333 0.608276
vt 0.333333 0.500000
vt 0.666667 1.000000
vt 0.833333 1.000000
vt 1.000000 0.500000
vt 1.000000 0.608276
vt 0.833333 0.608276
vt 0.833333 0.500000
vt 0.750000 0.490000
vt 0.957846 0.370000
vt 0.957846 0.130000
vt 0.750000 0.010000
vt 0.542154 0.130000
vt 0.542154 0.370000
vt 0.833333 0.608276
vt 0.333333 0.891724
vt 0.333333 1.000000
vt 0.166667 1.000000
vt 0.166667 0.891724
vt 0.500000 0.891724
vt 0.500000 1.000000
vt 0.666667 0.891724
vt 0.833333 0.891724
vt 0.666667 0.891724
vt 1.000000 0.891724
vt 1.000000 1.000000
vt 0.166667 0.891724
vt -0.000000 0.891724
vt -0.000000 1.000000
vt 0.412113 0.343596
vt 0.250000 0.437191
vt 0.457846 0.370000
vt 0.250000 0.490000
vt 0.412113 0.156404
vt 0.457846 0.130000
vt 0.250000 0.062809
vt 0.250000 0.010000
vt 0.087887 0.156404
vt 0.042154 0.130000
vt 0.087887 0.343596
vt 0.042154 0.370000
s 0
f 11/1/1 23/2/1 14/3/1 1/4/1
f 5/5/2 17/6/2 19/7/2 7/8/2
f 7/8/3 19/7/3 21/9/3 9/10/3
f 9/10/4 21/9/4 23/2/4 11/1/4
f 6/11/5 4/12/5 31/12/5 33/11/5
f 1/13/6 14/14/6 15/15/6 3/16/6
f 1/17/7 3/18/7 5/19/7 7/20/7 9/21/7 11/22/7
f 3/16/8 15/23/8 17/6/8 5/5/8
f 22/24/9 10/25/9 12/26/9 24/27/9
f 20/28/10 8/29/10 10/25/10 22/24/10
f 18/30/11 6/11/11 8/29/11 20/28/11
f 16/31/12 4/12/12 6/11/12 18/32/12
f 13/33/13 2/34/13 4/12/13 16/31/13
f 24/35/14 13/36/14 14/3/14 23/2/14
f 22/24/15 24/27/15 23/2/15 21/9/15
f 20/28/16 22/24/16 21/9/16 19/7/16
f 18/30/17 20/28/17 19/7/17 17/6/17
f 16/31/5 18/32/5 17/6/5 15/23/5
f 13/33/18 16/31/18 15/15/18 14/14/18
f 24/35/19 12/26/19 2/37/19 13/36/19
f 25/38/20 26/39/20 38/39/20 37/38/20
f 4/12/18 2/34/18 32/34/18 31/12/18
f 2/37/14 12/26/14 36/26/14 32/37/14
f 12/26/15 10/25/15 35/25/15 36/26/15
f 10/25/16 8/29/16 34/29/16 35/25/16
f 8/29/17 6/11/17 33/11/17 34/29/17
f 26/39/21 25/38/21 31/40/21 32/41/21
f 25/38/21 27/42/21 33/43/21 31/40/21
f 27/42/21 28/44/21 34/45/21 33/43/21
f 28/44/21 29/46/21 35/47/21 34/45/21
f 29/46/21 30/48/21 36/49/21 35/47/21
f 30/48/21 26/39/21 32/41/21 36/49/21
f 37/38/21 38/39/21 42/48/21 41/46/21 40/44/21 39/42/21
f 26/39/22 30/48/22 42/48/22 38/39/22
f 29/46/23 28/44/23 40/44/23 41/46/23
f 27/42/24 25/38/24 37/38/24 39/42/24
f 30/48/25 29/46/25 41/46/25 42/48/25
f 28/44/26 27/42/26 39/42/26 40/44/26
f 44/39/7 50/41/7 49/40/7 43/38/7
f 45/42/7 51/43/7 52/45/7 46/44/7
f 47/46/7 53/47/7 54/49/7 48/48/7
f 62/39/21 61/38/21 55/40/21 56/41/21
f 64/42/21 63/44/21 57/45/21 58/43/21
f 66/46/21 65/48/21 59/49/21 60/47/21
f 47/46/27 48/48/27 65/48/27 66/46/27
f 54/49/28 53/47/28 60/47/28 59/49/28
f 46/44/29 52/45/29 57/45/29 63/44/29
f 50/41/30 44/39/30 62/39/30 56/41/30
f 44/39/31 43/38/31 61/38/31 62/39/31
f 53/47/32 47/46/32 66/46/32 60/47/32
f 49/40/33 50/41/33 56/41/33 55/40/33
f 43/38/34 49/40/34 55/40/34 61/38/34
f 45/42/35 46/44/35 63/44/35 64/42/35
f 48/48/36 54/49/36 59/49/36 65/48/36
f 52/45/37 51/43/37 58/43/37 57/45/37
f 51/43/38 45/42/38 64/42/38 58/43/38
